<svg width="24" height="24" viewBox="0 0 24 24" fill="none" xmlns="http://www.w3.org/2000/svg">
<path d="M4.9289 18.0104L10.9393 12L4.9289 5.98959C4.63601 5.6967 4.63601 5.22182 4.9289 4.92893C5.22179 4.63604 5.69667 4.63604 5.98956 4.92893L12 10.9393L18.0104 4.92893C18.3033 4.63604 18.7781 4.63604 19.071 4.92893C19.3639 5.22182 19.3639 5.6967 19.071 5.98959L13.0606 12L19.071 18.0104C19.3639 18.3033 19.3639 18.7782 19.071 19.0711C18.7781 19.364 18.3033 19.364 18.0104 19.0711L12 13.0607L5.98956 19.0711C5.69667 19.364 5.22179 19.364 4.9289 19.0711C4.63601 18.7782 4.63601 18.3033 4.9289 18.0104Z" fill="#111111"/>
</svg>
