<svg width="24" height="24" viewBox="0 0 24 24" fill="none" xmlns="http://www.w3.org/2000/svg">
<path d="M6 22H18L18.2061 21.9951C20.2512 21.8913 21.8913 20.2512 21.9951 18.2061L22 18V12H20.5V18C20.5 19.3807 19.3807 20.5 18 20.5H6C4.61929 20.5 3.5 19.3807 3.5 18V6C3.5 4.61929 4.61929 3.5 6 3.5H12V2H6L5.79395 2.00488C3.68056 2.11212 2 3.85996 2 6V18L2.00488 18.2061C2.10865 20.2512 3.7488 21.8913 5.79395 21.9951L6 22Z" fill="#111111"/>
<path d="M9.22685 12.2353L11.7017 14.7102L20.3638 6.0481C20.4614 5.95047 20.4614 5.79217 20.3638 5.69454L18.2425 3.57322C18.1448 3.47559 17.9865 3.47559 17.8889 3.57322L9.22685 12.2353ZM7.51985 16.0954C7.45388 16.2713 7.5958 16.4441 7.76706 16.4337L7.84164 16.4172L10.3476 15.4773L8.45967 13.5894L7.51985 16.0954ZM16.8282 2.51256C17.5117 1.82915 18.6197 1.82915 19.3031 2.51256L21.4244 4.63388C22.1079 5.3173 22.1079 6.42534 21.4244 7.10876L12.2706 16.2626C12.1697 16.3635 12.0483 16.4417 11.9146 16.4918L8.36782 17.8217L8.23662 17.8659C6.87754 18.2638 5.60442 16.932 6.1153 15.5692L7.44517 12.0224C7.4953 11.8887 7.57346 11.7673 7.67441 11.6664L16.8282 2.51256Z" fill="#111111"/>
</svg>
