<svg width="24" height="24" viewBox="0 0 24 24" fill="none" xmlns="http://www.w3.org/2000/svg">
<path d="M11.5449 3.06738C11.6907 2.67055 12.2266 2.64577 12.4209 2.99316L12.4551 3.06738L14.416 8.40527C14.5918 8.8837 14.9439 9.27358 15.3955 9.49805L15.5947 9.58398L20.9326 11.5449C21.3295 11.6907 21.3542 12.2266 21.0068 12.4209L20.9326 12.4551L15.5947 14.416C15.1163 14.5918 14.7264 14.9439 14.502 15.3955L14.416 15.5947L12.4551 20.9326C12.3093 21.3295 11.7734 21.3542 11.5791 21.0068L11.5449 20.9326L9.58398 15.5947C9.4082 15.1163 9.05607 14.7264 8.60449 14.502L8.40527 14.416L3.06738 12.4551C2.67055 12.3093 2.64577 11.7734 2.99316 11.5791L3.06738 11.5449L8.40527 9.58398C8.8837 9.4082 9.27358 9.05607 9.49805 8.60449L9.58398 8.40527L11.5449 3.06738Z" stroke="#111111" stroke-width="1.5"/>
</svg>
