<svg width="24" height="24" viewBox="0 0 24 24" fill="none" xmlns="http://www.w3.org/2000/svg">
<path d="M15.75 4V5.5H18C18.2761 5.5 18.5 5.72386 18.5 6V20C18.5 20.2761 18.2761 20.5 18 20.5H6C5.72386 20.5 5.5 20.2761 5.5 20V6C5.5 5.72386 5.72386 5.5 6 5.5H8.25V4H6C4.89543 4 4 4.89543 4 6V20C4 21.1046 4.89543 22 6 22H18C19.1046 22 20 21.1046 20 20V6C20 4.89543 19.1046 4 18 4H15.75Z" fill="#111111"/>
<path d="M9.75 4C9.75 3.86193 9.86193 3.75 10 3.75H14C14.1381 3.75 14.25 3.86193 14.25 4V5.5V6C14.25 6.13807 14.1381 6.25 14 6.25H10C9.86193 6.25 9.75 6.13807 9.75 6V5.5V4ZM10 2.25C9.0335 2.25 8.25 3.0335 8.25 4V5.5V6C8.25 6.9665 9.0335 7.75 10 7.75H14C14.9665 7.75 15.75 6.9665 15.75 6V5.5V4C15.75 3.0335 14.9665 2.25 14 2.25H10Z" fill="#111111"/>
<path d="M8 13L11 16L16 11" stroke="#111111" stroke-width="1.5" stroke-linecap="round" stroke-linejoin="round"/>
</svg>
