<svg width="24" height="24" viewBox="0 0 24 24" fill="none" xmlns="http://www.w3.org/2000/svg">
<path d="M18.25 7.34961H5.75V16.6797C5.75 17.4495 5.751 17.9773 5.78809 18.3857C5.82413 18.7826 5.8896 18.9974 5.97949 19.1563L6.0625 19.2891C6.26976 19.5932 6.57325 19.8515 6.9502 20.0244L7.11816 20.0889C7.30192 20.148 7.53995 20.1895 7.88477 20.2148C8.35107 20.2491 8.94876 20.25 9.7998 20.25H14.2002C15.0512 20.25 15.6489 20.2491 16.1152 20.2148C16.5749 20.181 16.845 20.1183 17.0498 20.0244L17.2061 19.9443C17.5617 19.748 17.8413 19.4728 18.0205 19.1563L18.083 19.0244C18.1411 18.8784 18.1849 18.6833 18.2119 18.3857C18.249 17.9773 18.25 17.4495 18.25 16.6797V7.34961ZM11.2002 3.75C10.629 3.75 10.241 3.75043 9.94141 3.77246C9.72148 3.78863 9.58437 3.81475 9.48828 3.8457L9.4043 3.87793C9.22235 3.96142 9.07441 4.07847 8.96582 4.21289L8.87109 4.35254C8.83566 4.41513 8.79684 4.51861 8.77441 4.76563C8.75142 5.01893 8.75004 5.34895 8.75 5.84961H15.25C15.25 5.34895 15.2486 5.01893 15.2256 4.76563C15.2087 4.5801 15.1832 4.47533 15.1562 4.4082L15.1289 4.35254C15.0471 4.20813 14.9245 4.07567 14.7656 3.97168L14.5957 3.87793C14.4979 3.83307 14.3515 3.794 14.0586 3.77246C13.759 3.75043 13.371 3.75 12.7998 3.75H11.2002ZM19.75 16.6797C19.75 17.422 19.7507 18.0295 19.7061 18.5215C19.6604 19.0246 19.562 19.476 19.3252 19.8945L19.3262 19.8955C19.0021 20.468 18.5149 20.9353 17.9307 21.2578L17.6748 21.3877C17.2379 21.588 16.7664 21.6712 16.2256 21.7109C15.6915 21.7502 15.029 21.75 14.2002 21.75H9.7998C8.97097 21.75 8.30853 21.7502 7.77441 21.7109C7.30132 21.6761 6.88146 21.6077 6.49121 21.457L6.3252 21.3877C5.71431 21.1075 5.19242 20.6756 4.82324 20.1338L4.67383 19.8955C4.43684 19.4769 4.33965 19.0247 4.29395 18.5215C4.24928 18.0295 4.25 17.422 4.25 16.6797V7.34961H3C2.58579 7.34961 2.25 7.01382 2.25 6.59961C2.25021 6.18558 2.58592 5.84961 3 5.84961H7.25C7.24998 5.3724 7.24988 4.96471 7.28027 4.62988C7.31235 4.27662 7.38289 3.93571 7.56543 3.61328L7.67578 3.43652C7.94885 3.03583 8.33317 2.71926 8.7793 2.51465L8.9043 2.46192C9.1969 2.34897 9.50394 2.30044 9.83105 2.27637C10.1985 2.24935 10.6513 2.25 11.2002 2.25H12.7998C13.3487 2.25 13.8015 2.24935 14.1689 2.27637C14.5429 2.30389 14.8908 2.36337 15.2207 2.51465L15.4082 2.60938C15.8356 2.84541 16.1944 3.18913 16.4346 3.61328L16.498 3.73535C16.6342 4.02136 16.6917 4.32086 16.7197 4.62988C16.7501 4.96471 16.75 5.3724 16.75 5.84961H21C21.4141 5.84961 21.7498 6.18558 21.75 6.59961C21.75 7.01382 21.4142 7.34961 21 7.34961H19.75V16.6797Z" fill="#111111"/>
</svg>
