<svg width="24" height="24" viewBox="0 0 24 24" fill="none" xmlns="http://www.w3.org/2000/svg">
<path d="M14.2236 2C9.93742 2 6.44714 5.49028 6.44714 9.77643C6.44714 11.6385 7.10024 13.3457 8.19684 14.6853L2 20.8821L3.11786 22L9.3147 15.8032C10.6543 16.8998 12.3615 17.5529 14.2236 17.5529C18.5097 17.5529 22 14.0626 22 9.77643C22 5.49028 18.5097 2 14.2236 2ZM14.2236 3.55529C17.6683 3.55529 20.4447 6.33171 20.4447 9.77643C20.4447 13.2211 17.6683 15.9976 14.2236 15.9976C10.7789 15.9976 8.00243 13.2211 8.00243 9.77643C8.00243 6.33171 10.7789 3.55529 14.2236 3.55529Z" fill="#111111"/>
</svg>
